<?xml version="1.0" standalone="no"?><!DOCTYPE svg PUBLIC "-//W3C//DTD SVG 1.1//EN" "http://www.w3.org/Graphics/SVG/1.1/DTD/svg11.dtd"><svg t="1529594091796" class="icon" style="" viewBox="0 0 1024 1024" version="1.1" xmlns="http://www.w3.org/2000/svg" p-id="7773" xmlns:xlink="http://www.w3.org/1999/xlink" width="200" height="200"><defs><style type="text/css"></style></defs><path d="M78.692247 124.764562l0 206.940143 47.072085 0L125.764332 124.764562c0-4.441149 3.552919-7.993045 7.993045-7.993045l190.0648 0 0-47.072085L133.7584 69.699432C103.560634 69.699432 78.692247 94.567819 78.692247 124.764562z" p-id="7774"></path><path d="M875.366821 69.699432 685.302021 69.699432l0 47.072085 190.0648 0c4.441149 0 7.993045 3.552919 7.993045 7.993045l0 206.940143 47.072085 0L930.431951 124.764562C930.431951 94.567819 905.563564 69.699432 875.366821 69.699432z" p-id="7775"></path><path d="M883.359866 899.234415c0 4.441149-3.552919 7.993045-7.993045 7.993045L685.302021 907.22746l0 47.072085 190.0648 0c30.196743 0 55.06513-24.868387 55.06513-55.06513L930.431951 692.295296l-47.072085 0L883.359866 899.234415z" p-id="7776"></path><path d="M125.764332 899.234415 125.764332 692.295296l-47.072085 0 0 206.940143c0 30.196743 24.868387 55.06513 55.06513 55.06513l190.0648 0 0-47.072085L133.7584 907.228483C129.317251 907.228483 125.764332 903.675564 125.764332 899.234415z" p-id="7777"></path><path d="M753.111486 457.550773c0 4.33666-2.602036 9.193767-7.806107 14.397838l-108.93734 106.161822 25.846676 150.049067c0.173482 1.387659 0.346965 3.469248 0.346965 6.071284 0 4.163177-1.040894 7.805908-3.122483 10.581426-2.081589 2.949001-5.204072 4.33666-9.193767 4.33666-3.816213 0-7.806107-1.214377-11.969285-3.64293l-134.610534-70.774615-134.610534 70.774615c-4.33666 2.428553-8.326355 3.64293-11.969285 3.64293-4.163177 0-7.28566-1.387659-9.367249-4.33666-2.081589-2.949001-3.122483-6.418248-3.122483-10.581426 0-1.214377 0.173482-3.122483 0.520447-6.071284l25.846676-150.049067L261.85296 471.948411c-5.030589-5.377554-7.459143-10.234461-7.459143-14.397838 0-7.459143 5.551036-11.969285 16.826392-13.877391l150.569314-21.856781 67.478649-136.51864c3.816213-8.152872 8.673319-12.31625 14.744603-12.31625 6.071284 0 10.928391 4.163177 14.744803 12.31625l67.478649 136.51864 150.569514 21.856781C747.56065 445.408005 753.111486 450.09163 753.111486 457.550773z" p-id="7778"></path></svg>